{
  "accessors": [
    {
      "bufferView": 2,
      "componentType": 5126,
      "count": 65532,
      "max": [
        9.110044479370117,
        14.830896377563477,
        8.589740753173828
      ],
      "min": [
        0.0010900497436523438,
        0.0,
        0.28626298904418945
      ],
      "type": "VEC3"
    },
    {
      "bufferView": 2,
      "byteOffset": 786384,
      "componentType": 5126,
      "count": 65532,
      "max": [
        0.999997079372406,
        0.9999911189079285,
        0.9999957084655762
      ],
      "min": [
        -0.9999712109565735,
        -0.9996439218521118,
        -0.999853253364563
      ],
      "type": "VEC3"
    },
    {
      "bufferView": 1,
      "componentType": 5126,
      "count": 65532,
      "max": [
        0.9950050115585327,
        0.9960349798202515
      ],
      "min": [
        0.004883000161498785,
        0.038141001015901566
      ],
      "type": "VEC2"
    },
    {
      "bufferView": 0,
      "componentType": 5125,
      "count": 331581,
      "type": "SCALAR"
    },
    {
      "bufferView": 2,
      "byteOffset": 1572768,
      "componentType": 5126,
      "count": 65532,
      "max": [
        8.917531967163086,
        14.439735412597656,
        7.622527122497559
      ],
      "min": [
        0.055937767028808594,
        0.0008420944213867188,
        0.21352005004882813
      ],
      "type": "VEC3"
    },
    {
      "bufferView": 2,
      "byteOffset": 2359152,
      "componentType": 5126,
      "count": 65532,
      "max": [
        0.9999718070030212,
        0.9999756217002869,
        0.999961793422699
      ],
      "min": [
        -0.9998466968536377,
        -0.9999465346336365,
        -0.9988301396369934
      ],
      "type": "VEC3"
    },
    {
      "bufferView": 1,
      "byteOffset": 524256,
      "componentType": 5126,
      "count": 65532,
      "max": [
        0.9837449789047241,
        0.910893976688385
      ],
      "min": [
        0.014258000068366528,
        0.008423999883234501
      ],
      "type": "VEC2"
    },
    {
      "bufferView": 0,
      "byteOffset": 1326324,
      "componentType": 5125,
      "count": 339675,
      "type": "SCALAR"
    },
    {
      "bufferView": 2,
      "byteOffset": 3145536,
      "componentType": 5126,
      "count": 65532,
      "max": [
        9.129941940307617,
        14.830896377563477,
        8.62386417388916
      ],
      "min": [
        0.0,
        1.0967254638671875e-05,
        0.843419075012207
      ],
      "type": "VEC3"
    },
    {
      "bufferView": 2,
      "byteOffset": 3931920,
      "componentType": 5126,
      "count": 65532,
      "max": [
        0.9999972581863403,
        0.9999640583992004,
        0.9999991059303284
      ],
      "min": [
        -0.9999960064888,
        -0.9999627470970154,
        -0.996878445148468
      ],
      "type": "VEC3"
    },
    {
      "bufferView": 1,
      "byteOffset": 1048512,
      "componentType": 5126,
      "count": 65532,
      "max": [
        0.9915170073509216,
        0.9961810111999512
      ],
      "min": [
        0.0030400000978261232,
        0.004265999887138605
      ],
      "type": "VEC2"
    },
    {
      "bufferView": 0,
      "byteOffset": 2685024,
      "componentType": 5125,
      "count": 311469,
      "type": "SCALAR"
    },
    {
      "bufferView": 2,
      "byteOffset": 4718304,
      "componentType": 5126,
      "count": 65532,
      "max": [
        9.129941940307617,
        14.82071304321289,
        8.62386417388916
      ],
      "min": [
        0.0043277740478515625,
        0.020553112030029297,
        0.14324188232421875
      ],
      "type": "VEC3"
    },
    {
      "bufferView": 2,
      "byteOffset": 5504688,
      "componentType": 5126,
      "count": 65532,
      "max": [
        0.999997079372406,
        0.9999914169311523,
        0.9999788403511047
      ],
      "min": [
        -0.9996432065963745,
        -0.9999465346336365,
        -0.9999060034751892
      ],
      "type": "VEC3"
    },
    {
      "bufferView": 1,
      "byteOffset": 1572768,
      "componentType": 5126,
      "count": 65532,
      "max": [
        0.99030601978302,
        0.9995059967041016
      ],
      "min": [
        0.003073000116273761,
        0.01621999964118004
      ],
      "type": "VEC2"
    },
    {
      "bufferView": 0,
      "byteOffset": 3930900,
      "componentType": 5125,
      "count": 287223,
      "type": "SCALAR"
    },
    {
      "bufferView": 2,
      "byteOffset": 6291072,
      "componentType": 5126,
      "count": 62201,
      "max": [
        8.979095458984375,
        14.812068939208984,
        4.455416202545166
      ],
      "min": [
        0.29105520248413086,
        0.20107030868530273,
        0.0
      ],
      "type": "VEC3"
    },
    {
      "bufferView": 2,
      "byteOffset": 7037484,
      "componentType": 5126,
      "count": 62201,
      "max": [
        0.9999718070030212,
        0.9998375177383423,
        0.9990048408508301
      ],
      "min": [
        -0.9999708533287048,
        -0.9987803101539612,
        -0.9999799728393555
      ],
      "type": "VEC3"
    },
    {
      "bufferView": 1,
      "byteOffset": 2097024,
      "componentType": 5126,
      "count": 62201,
      "max": [
        0.967411994934082,
        0.9722239971160889
      ],
      "min": [
        0.0053090001456439495,
        0.006442999932914972
      ],
      "type": "VEC2"
    },
    {
      "bufferView": 0,
      "byteOffset": 5079792,
      "componentType": 5125,
      "count": 306522,
      "type": "SCALAR"
    }
  ],
  "asset": {
    "extras": {
      "author": "The British Museum (https://sketchfab.com/britishmuseum)",
      "license": "CC-BY-NC-SA-4.0 (http://creativecommons.org/licenses/by-nc-sa/4.0/)",
      "source": "https://sketchfab.com/3d-models/julius-caesar-dde432311eb748e19e76bbb888fb0730",
      "title": "Julius Caesar"
    },
    "generator": "Sketchfab-12.64.0",
    "version": "2.0"
  },
  "bufferViews": [
    {
      "buffer": 0,
      "byteLength": 6305880,
      "name": "floatBufferViews",
      "target": 34963
    },
    {
      "buffer": 0,
      "byteLength": 2594632,
      "byteOffset": 6305880,
      "byteStride": 8,
      "name": "floatBufferViews",
      "target": 34962
    },
    {
      "buffer": 0,
      "byteLength": 7783896,
      "byteOffset": 8900512,
      "byteStride": 12,
      "name": "floatBufferViews",
      "target": 34962
    }
  ],
  "buffers": [
    {
      "byteLength": 16684408,
      "uri": "scene.bin"
    }
  ],
  "extensionsUsed": [
    "KHR_materials_unlit"
  ],
  "images": [
    {
      "uri": "textures/material_0_baseColor.jpeg"
    }
  ],
  "materials": [
    {
      "doubleSided": true,
      "extensions": {
        "KHR_materials_unlit": {}
      },
      "name": "material_0",
      "pbrMetallicRoughness": {
        "baseColorTexture": {
          "index": 0
        },
        "metallicFactor": 0.0
      }
    }
  ],
  "meshes": [
    {
      "name": "Object_0",
      "primitives": [
        {
          "attributes": {
            "NORMAL": 1,
            "POSITION": 0,
            "TEXCOORD_0": 2
          },
          "indices": 3,
          "material": 0,
          "mode": 4
        }
      ]
    },
    {
      "name": "Object_1",
      "primitives": [
        {
          "attributes": {
            "NORMAL": 5,
            "POSITION": 4,
            "TEXCOORD_0": 6
          },
          "indices": 7,
          "material": 0,
          "mode": 4
        }
      ]
    },
    {
      "name": "Object_2",
      "primitives": [
        {
          "attributes": {
            "NORMAL": 9,
            "POSITION": 8,
            "TEXCOORD_0": 10
          },
          "indices": 11,
          "material": 0,
          "mode": 4
        }
      ]
    },
    {
      "name": "Object_3",
      "primitives": [
        {
          "attributes": {
            "NORMAL": 13,
            "POSITION": 12,
            "TEXCOORD_0": 14
          },
          "indices": 15,
          "material": 0,
          "mode": 4
        }
      ]
    },
    {
      "name": "Object_4",
      "primitives": [
        {
          "attributes": {
            "NORMAL": 17,
            "POSITION": 16,
            "TEXCOORD_0": 18
          },
          "indices": 19,
          "material": 0,
          "mode": 4
        }
      ]
    }
  ],
  "nodes": [
    {
      "children": [
        1
      ],
      "matrix": [
        2.7200464103316335e-15,
        1.6209256159527285e-14,
        -1.0,
        0.0,
        0.15189968049526215,
        -0.9883959293365479,
        -1.9148770553497962e-14,
        0.0,
        -0.9883959293365479,
        -0.15189968049526215,
        -2.0876411001003486e-15,
        0.0,
        -1.2765203791786917e-05,
        -1.35750015033409e-05,
        -1.1170745892741281e-06,
        1.0
      ],
      "name": "Sketchfab_model"
    },
    {
      "children": [
        2,
        3,
        4,
        5,
        6
      ],
      "matrix": [
        1.0,
        0.0,
        0.0,
        0.0,
        0.0,
        1.0,
        0.0,
        0.0,
        0.0,
        0.0,
        1.0,
        0.0,
        -4.564970970153809,
        -7.415448188781738,
        -4.31193208694458,
        1.0
      ],
      "name": "model.obj.cleaner.gles"
    },
    {
      "mesh": 0,
      "name": "Object_2"
    },
    {
      "mesh": 1,
      "name": "Object_3"
    },
    {
      "mesh": 2,
      "name": "Object_4"
    },
    {
      "mesh": 3,
      "name": "Object_5"
    },
    {
      "mesh": 4,
      "name": "Object_6"
    }
  ],
  "samplers": [
    {
      "magFilter": 9729,
      "minFilter": 9987,
      "wrapS": 10497,
      "wrapT": 10497
    }
  ],
  "scene": 0,
  "scenes": [
    {
      "name": "Sketchfab_Scene",
      "nodes": [
        0
      ]
    }
  ],
  "textures": [
    {
      "sampler": 0,
      "source": 0
    }
  ]
}
